<svg xmlns="http://www.w3.org/2000/svg" width="178" height="40" viewBox="0 0 178 40" fill="none"><g id="Group"><g id="Group_2"><path id="Vector" d="M42.7866 27.6501V4.73001C42.7866 4.56753 42.8501 4.41866 42.9778 4.28187C43.104 4.14207 43.2605 4.07254 43.4448 4.07254H46.6642C46.8486 4.07254 47.005 4.13678 47.1312 4.26222C47.2582 4.38994 47.3217 4.54637 47.3217 4.73001V13.9036H58.6075V4.73001C58.6075 4.54637 58.6718 4.38994 58.798 4.26222C58.9249 4.13678 59.0806 4.07254 59.265 4.07254H62.4518C62.6113 4.07254 62.7624 4.14207 62.9015 4.28187C63.0398 4.41866 63.1086 4.56753 63.1086 4.73001V27.6501C63.1086 27.8126 63.0398 27.9584 62.9015 28.0997C62.7624 28.2373 62.6113 28.3076 62.4518 28.3076H59.265C59.0806 28.3076 58.9257 28.2433 58.798 28.1164C58.671 27.9894 58.6075 27.8337 58.6075 27.6501V18.0941H47.3224V27.6501C47.3224 27.8337 47.2589 27.9894 47.132 28.1164C47.005 28.2433 46.8493 28.3076 46.6649 28.3076H43.4456C43.2605 28.3076 43.104 28.2373 42.9786 28.0997C42.8501 27.9584 42.7866 27.8126 42.7866 27.6501Z" fill="#004F90"></path><path id="Vector_2" d="M71.2968 25.0346C68.8853 22.6231 67.6792 19.6871 67.6792 16.2229C67.6792 12.761 68.8853 9.81372 71.2968 7.37729C73.7075 4.94238 76.6473 3.72568 80.1084 3.72568C83.5704 3.72568 86.5139 4.94238 88.9382 7.37729C91.3595 9.81372 92.5724 12.761 92.5724 16.2229C92.5724 19.6864 91.3595 22.6231 88.9382 25.0346C86.5139 27.4468 83.5711 28.6537 80.1084 28.6537C76.6473 28.6529 73.7075 27.4468 71.2968 25.0346ZM74.5169 10.5793C72.9586 12.1511 72.1795 14.0306 72.1795 16.2229C72.1795 18.4168 72.9594 20.2857 74.5169 21.8319C76.0752 23.3796 77.9388 24.1534 80.1084 24.1534C82.3 24.1534 84.1757 23.3735 85.734 21.8167C87.293 20.26 88.0714 18.3941 88.0714 16.2229C88.0714 14.0306 87.2862 12.1511 85.7166 10.5793C84.1462 9.01115 82.2773 8.22596 80.1084 8.22596C77.9388 8.22596 76.0744 9.0119 74.5169 10.5793Z" fill="#004F90"></path><path id="Vector_3" d="M94.6157 27.6501V27.0266L104.931 8.40052V8.26147H96.2753C96.1135 8.26147 95.9654 8.19799 95.8256 8.07178C95.6888 7.94407 95.6186 7.78915 95.6186 7.60324V4.73001C95.6186 4.56753 95.6888 4.41866 95.8256 4.28187C95.9654 4.14207 96.1135 4.07254 96.2753 4.07254H110.749C110.91 4.07254 111.06 4.14207 111.198 4.28187C111.337 4.41866 111.408 4.56753 111.408 4.73001V5.17891L101.227 24.0491V24.1186H110.056C110.24 24.1186 110.396 24.1829 110.523 24.3076C110.65 24.4368 110.713 24.5902 110.713 24.7761V27.6509C110.713 27.8345 110.65 27.9902 110.523 28.1171C110.396 28.2441 110.24 28.3083 110.056 28.3083H95.2724C95.088 28.3083 94.9324 28.238 94.8054 28.1005C94.6784 27.9584 94.6157 27.8126 94.6157 27.6501Z" fill="#004F90"></path><path id="Vector_4" d="M118.778 27.6501V8.22595H113.484C113.298 8.22595 113.141 8.16474 113.015 8.03702C112.888 7.90855 112.825 7.75438 112.825 7.56923V4.73001C112.825 4.54637 112.887 4.38994 113.015 4.26222C113.141 4.13678 113.298 4.07254 113.484 4.07254H128.612C128.795 4.07254 128.952 4.13678 129.08 4.26222C129.206 4.38994 129.27 4.54637 129.27 4.73001V7.56923C129.27 7.75514 129.206 7.90855 129.08 8.03702C128.953 8.16474 128.796 8.22595 128.612 8.22595H123.313V27.6501C123.313 27.8126 123.245 27.9584 123.105 28.0997C122.969 28.2373 122.818 28.3076 122.658 28.3076H119.437C119.252 28.3076 119.098 28.2373 118.97 28.0997C118.842 27.9584 118.778 27.8126 118.778 27.6501Z" fill="#004F90"></path><path id="Vector_5" d="M134.515 25.0346C132.103 22.6231 130.897 19.6871 130.897 16.2229C130.897 12.761 132.104 9.81372 134.515 7.37729C136.927 4.94238 139.864 3.72568 143.327 3.72568C146.789 3.72568 149.731 4.94238 152.156 7.37729C154.579 9.81372 155.792 12.761 155.792 16.2229C155.792 19.6864 154.579 22.6231 152.156 25.0346C149.732 27.4468 146.789 28.6537 143.327 28.6537C139.864 28.6529 136.927 27.4468 134.515 25.0346ZM137.735 10.5793C136.176 12.1511 135.398 14.0306 135.398 16.2229C135.398 18.4168 136.176 20.2857 137.735 21.8319C139.292 23.3796 141.157 24.1534 143.327 24.1534C145.52 24.1534 147.396 23.3735 148.949 21.8167C150.51 20.26 151.291 18.3941 151.291 16.2229C151.291 14.0306 150.505 12.1511 148.935 10.5793C147.365 9.01115 145.496 8.22596 143.327 8.22596C141.157 8.22596 139.293 9.0119 137.735 10.5793Z" fill="#004F90"></path><path id="Vector_6" d="M157.87 27.3388L165.067 15.8776L158.143 5.04137C158.004 4.81164 157.993 4.59097 158.109 4.38541C158.225 4.17684 158.43 4.07179 158.732 4.07179H162.747C162.955 4.07179 163.142 4.17684 163.304 4.38541L167.736 11.7227H167.766L172.268 4.38541C172.361 4.17684 172.547 4.07179 172.822 4.07179H176.841C177.138 4.07179 177.346 4.17684 177.462 4.38541C177.579 4.59097 177.568 4.81088 177.428 5.04137L170.469 15.8776L177.67 27.3388C177.811 27.5692 177.818 27.7884 177.706 27.9962C177.59 28.2018 177.381 28.3076 177.083 28.3076H173.343C173.041 28.3076 172.844 28.2018 172.754 27.9962L167.8 20.0673H167.699L162.815 27.9962C162.657 28.2018 162.459 28.3076 162.227 28.3076H158.486C158.189 28.3076 157.976 28.2018 157.847 27.9962C157.722 27.7884 157.729 27.5692 157.87 27.3388Z" fill="#004F90"></path></g><g id="Group_3"><g id="Group_4"><path id="Vector_7" d="M9.69225 28.1708V31.3924C9.69225 31.3924 -6.21329 22.6601 2.72682 7.79897L24.9728 30.4568L22.0618 32.1186L3.55886 13.4094C3.55886 13.4094 0.647094 22.6609 9.69225 28.1708Z" fill="#004F90"></path><path id="Vector_8" d="M22.0233 5.50916L22.0044 2.28679C22.0044 2.28679 37.9537 10.9375 29.0892 25.8424L6.72986 3.29718L9.63256 1.61647L28.2284 20.2388C28.2284 20.2388 31.0911 10.9722 22.0233 5.50916Z" fill="#004F90"></path></g><path id="Vector_9" d="M12.4868 30.7682L16.1407 1.61723L19.2497 0C19.2497 0 14.7895 25.5568 12.4868 30.7682Z" fill="#F0871F"></path></g><g id="Group_5"><path id="Vector_10" d="M74.9792 39.7143V33.9248H73.371C73.3181 33.9248 73.2743 33.9066 73.238 33.8704C73.2017 33.8341 73.1836 33.7895 73.1836 33.7374V33.1849C73.1836 33.132 73.2017 33.0882 73.238 33.0519C73.2743 33.0156 73.3181 32.9975 73.371 32.9975H77.6121C77.665 32.9975 77.7088 33.0156 77.7451 33.0519C77.7814 33.0882 77.7995 33.1328 77.7995 33.1849V33.7374C77.7995 33.7903 77.7814 33.8341 77.7451 33.8704C77.7088 33.9066 77.6642 33.9248 77.6121 33.9248H76.0039V39.7143C76.0039 39.7604 75.9858 39.8035 75.9495 39.8428C75.9132 39.8821 75.8686 39.9017 75.8165 39.9017H75.1658C75.1129 39.9017 75.0683 39.8821 75.0328 39.8428C74.9973 39.8027 74.9792 39.7604 74.9792 39.7143Z" fill="#F0871F"></path><path id="Vector_11" d="M78.865 39.7143V33.1849C78.865 33.132 78.8831 33.0882 78.9194 33.0519C78.9557 33.0156 79.0003 32.9975 79.0524 32.9975H82.998C83.0509 32.9975 83.0947 33.0156 83.131 33.0519C83.1673 33.0882 83.1854 33.1328 83.1854 33.1849V33.7374C83.1854 33.7903 83.1673 33.8341 83.131 33.8704C83.0947 33.9066 83.0501 33.9248 82.998 33.9248H79.8814V35.9372H82.5151C82.5612 35.9372 82.6035 35.9569 82.6436 35.9962C82.6836 36.0355 82.7025 36.0786 82.7025 36.1247V36.6771C82.7025 36.73 82.6844 36.7746 82.6481 36.8101C82.6118 36.8464 82.5672 36.8645 82.5151 36.8645H79.8814V38.985H82.998C83.0509 38.985 83.0947 39.0032 83.131 39.0395C83.1673 39.0757 83.1854 39.1203 83.1854 39.1725V39.7151C83.1854 39.768 83.1673 39.8125 83.131 39.8481C83.0947 39.8843 83.0501 39.9025 82.998 39.9025H79.0524C78.9995 39.9025 78.9557 39.8843 78.9194 39.8481C78.8831 39.811 78.865 39.7672 78.865 39.7143Z" fill="#F0871F"></path><path id="Vector_12" d="M85.1827 38.9692C84.489 38.2822 84.1421 37.4457 84.1421 36.4587C84.1421 35.4725 84.489 34.6321 85.1827 33.9384C85.8765 33.2446 86.7168 32.8978 87.703 32.8978C88.591 32.8978 89.386 33.2038 90.0903 33.8152C90.1893 33.9074 90.1923 33.9996 90.1001 34.091L89.6664 34.5346C89.5938 34.6268 89.5114 34.6268 89.42 34.5346C88.9137 34.0941 88.3446 33.8741 87.7136 33.8741C87.0168 33.8741 86.4296 34.1273 85.9528 34.6336C85.4759 35.14 85.2379 35.7415 85.2379 36.439C85.2379 37.1358 85.4782 37.7359 85.9581 38.2392C86.438 38.7425 87.0267 38.9934 87.7234 38.9934C88.2887 38.9934 88.8547 38.7765 89.42 38.3427C89.5054 38.2769 89.584 38.2739 89.6565 38.3329L90.11 38.7765C90.1493 38.8158 90.1674 38.8604 90.1644 38.9095C90.1614 38.9586 90.1394 39.0032 90.1001 39.0425C89.4427 39.6803 88.6439 39.9992 87.703 39.9992C86.7168 40 85.8765 39.6569 85.1827 38.9692Z" fill="#F0871F"></path><path id="Vector_13" d="M91.5105 39.7143V33.1849C91.5105 33.1388 91.5286 33.0965 91.5649 33.0565C91.6012 33.0172 91.6458 32.9975 91.6979 32.9975H92.3486C92.4015 32.9975 92.4453 33.0156 92.4816 33.0519C92.5179 33.0882 92.536 33.1328 92.536 33.1849V35.9372H96.1461V33.1849C96.1461 33.132 96.1642 33.0882 96.2005 33.0519C96.2367 33.0156 96.2813 32.9975 96.3335 32.9975H96.9841C97.037 32.9975 97.0809 33.0172 97.1171 33.0565C97.1534 33.0958 97.1716 33.1388 97.1716 33.1849V39.7143C97.1716 39.7604 97.1534 39.8035 97.1171 39.8428C97.0809 39.8821 97.0363 39.9017 96.9841 39.9017H96.3335C96.2806 39.9017 96.2367 39.8836 96.2005 39.8473C96.1642 39.811 96.1461 39.7672 96.1461 39.7143V36.8637H92.536V39.7143C92.536 39.7672 92.5179 39.8118 92.4816 39.8473C92.4453 39.8836 92.4007 39.9017 92.3486 39.9017H91.6979C91.645 39.9017 91.6012 39.8821 91.5649 39.8428C91.5286 39.8027 91.5105 39.7604 91.5105 39.7143Z" fill="#F0871F"></path><path id="Vector_14" d="M99.0856 39.7143V33.0761C99.0856 33.03 99.1037 32.9892 99.14 32.9529C99.1763 32.9167 99.2208 32.8985 99.273 32.8985H99.5194L103.8 37.85H103.81V33.1842C103.81 33.1313 103.828 33.0875 103.865 33.0512C103.901 33.0149 103.945 32.9968 103.998 32.9968H104.629C104.675 32.9968 104.718 33.0164 104.757 33.0557C104.797 33.095 104.816 33.1381 104.816 33.1842V39.8224C104.816 39.8685 104.798 39.9093 104.762 39.9456C104.725 39.9818 104.681 40 104.629 40H104.373L100.091 34.9102H100.082V39.7136C100.082 39.7665 100.063 39.8111 100.027 39.8466C99.9909 39.8828 99.9463 39.901 99.8942 39.901H99.273C99.2201 39.901 99.1763 39.8813 99.14 39.842C99.103 39.8027 99.0856 39.7604 99.0856 39.7143Z" fill="#F0871F"></path><path id="Vector_15" d="M107.257 38.9692C106.57 38.2822 106.227 37.4457 106.227 36.4587C106.227 35.4725 106.57 34.6321 107.257 33.9384C107.944 33.2446 108.781 32.8978 109.768 32.8978C110.754 32.8978 111.593 33.2446 112.283 33.9384C112.974 34.6321 113.318 35.4725 113.318 36.4587C113.318 37.4449 112.973 38.2822 112.283 38.9692C111.592 39.6561 110.754 40 109.768 40C108.782 40 107.944 39.6569 107.257 38.9692ZM107.968 34.6442C107.464 35.1506 107.214 35.7559 107.214 36.4595C107.214 37.163 107.464 37.7646 107.963 38.2649C108.463 38.7644 109.064 39.0145 109.769 39.0145C110.472 39.0145 111.075 38.7644 111.579 38.2649C112.082 37.7653 112.333 37.1638 112.333 36.4595C112.333 35.7559 112.081 35.1513 111.579 34.6442C111.075 34.1379 110.472 33.8847 109.769 33.8847C109.07 33.8847 108.47 34.1379 107.968 34.6442Z" fill="#F0871F"></path><path id="Vector_16" d="M114.729 39.7143V33.1849C114.729 33.132 114.747 33.0882 114.783 33.0519C114.82 33.0156 114.864 32.9975 114.916 32.9975H115.567C115.62 32.9975 115.664 33.0172 115.7 33.0565C115.736 33.0958 115.755 33.1388 115.755 33.1849V38.9843H118.427C118.48 38.9843 118.524 39.0024 118.56 39.0387C118.597 39.075 118.615 39.1196 118.615 39.1717V39.7143C118.615 39.7672 118.597 39.8118 118.56 39.8473C118.524 39.8836 118.48 39.9017 118.427 39.9017H114.916C114.863 39.9017 114.819 39.8836 114.783 39.8473C114.747 39.811 114.729 39.7672 114.729 39.7143Z" fill="#F0871F"></path><path id="Vector_17" d="M120.11 38.9692C119.423 38.2822 119.079 37.4457 119.079 36.4587C119.079 35.4725 119.423 34.6321 120.11 33.9384C120.797 33.2446 121.633 32.8978 122.62 32.8978C123.606 32.8978 124.445 33.2446 125.135 33.9384C125.826 34.6321 126.17 35.4725 126.17 36.4587C126.17 37.4449 125.825 38.2822 125.135 38.9692C124.444 39.6561 123.606 40 122.62 40C121.633 40 120.797 39.6569 120.11 38.9692ZM120.819 34.6442C120.316 35.1506 120.065 35.7559 120.065 36.4595C120.065 37.163 120.315 37.7646 120.815 38.2649C121.314 38.7644 121.916 39.0145 122.62 39.0145C123.324 39.0145 123.927 38.7644 124.43 38.2649C124.933 37.7653 125.185 37.1638 125.185 36.4595C125.185 35.7559 124.933 35.1513 124.43 34.6442C123.927 34.1379 123.324 33.8847 122.62 33.8847C121.923 33.8847 121.323 34.1379 120.819 34.6442Z" fill="#F0871F"></path><path id="Vector_18" d="M128.114 38.9692C127.423 38.2822 127.078 37.4457 127.078 36.4587C127.078 35.4725 127.425 34.6321 128.119 33.9384C128.813 33.2446 129.649 32.8978 130.629 32.8978C131.511 32.8978 132.309 33.2038 133.026 33.8152C133.125 33.9142 133.128 34.0056 133.036 34.091C132.99 34.1439 132.918 34.221 132.819 34.323C132.72 34.4251 132.645 34.5021 132.593 34.555C132.52 34.6336 132.435 34.6306 132.337 34.5452C131.823 34.0978 131.265 33.8741 130.66 33.8741C129.969 33.8741 129.384 34.1273 128.904 34.6336C128.424 35.14 128.184 35.7415 128.184 36.439C128.184 37.1358 128.424 37.7359 128.904 38.2392C129.384 38.7425 129.97 38.9934 130.66 38.9934C130.771 38.9934 130.882 38.9888 130.99 38.9782C131.099 38.9684 131.198 38.9533 131.291 38.9337C131.383 38.914 131.47 38.8944 131.552 38.8747C131.634 38.8551 131.71 38.8316 131.779 38.8059C131.848 38.7795 131.903 38.7583 131.947 38.7417C131.989 38.7251 132.03 38.7069 132.07 38.6873C132.109 38.6677 132.132 38.6578 132.139 38.6578V37.553H131.172C131.119 37.553 131.074 37.5363 131.039 37.5039C131.003 37.4714 130.985 37.4283 130.985 37.3754V36.8033C130.985 36.6786 131.047 36.6159 131.172 36.6159H132.967C133.013 36.6159 133.054 36.634 133.09 36.6703C133.126 36.7066 133.144 36.7512 133.144 36.8033C133.144 37.0663 133.146 37.4638 133.149 37.9966C133.152 38.5294 133.153 38.9269 133.153 39.1899C133.153 39.2556 133.127 39.3085 133.075 39.3478C132.996 39.3939 132.887 39.4528 132.749 39.5254C132.611 39.5979 132.328 39.6947 131.901 39.8163C131.473 39.938 131.05 39.9985 130.629 39.9985C129.642 40 128.804 39.6569 128.114 38.9692Z" fill="#F0871F"></path><path id="Vector_19" d="M134.703 39.7143V33.1849C134.703 33.1388 134.721 33.0965 134.757 33.0565C134.793 33.0172 134.837 32.9975 134.89 32.9975H135.541C135.594 32.9975 135.637 33.0172 135.674 33.0565C135.71 33.0958 135.728 33.1388 135.728 33.1849V39.7143C135.728 39.7604 135.71 39.8035 135.674 39.8428C135.637 39.8821 135.593 39.9017 135.541 39.9017H134.89C134.837 39.9017 134.793 39.8821 134.757 39.8428C134.72 39.8027 134.703 39.7604 134.703 39.7143Z" fill="#F0871F"></path><path id="Vector_20" d="M137.642 39.7143V33.1849C137.642 33.132 137.66 33.0882 137.696 33.0519C137.732 33.0156 137.777 32.9975 137.829 32.9975H141.775C141.828 32.9975 141.871 33.0156 141.908 33.0519C141.944 33.0882 141.962 33.1328 141.962 33.1849V33.7374C141.962 33.7903 141.944 33.8341 141.908 33.8704C141.871 33.9066 141.827 33.9248 141.775 33.9248H138.658V35.9372H141.292C141.338 35.9372 141.38 35.9569 141.42 35.9962C141.46 36.0355 141.479 36.0786 141.479 36.1247V36.6771C141.479 36.73 141.461 36.7746 141.425 36.8101C141.388 36.8464 141.344 36.8645 141.292 36.8645H138.658V38.985H141.775C141.828 38.985 141.871 39.0032 141.908 39.0395C141.944 39.0757 141.962 39.1203 141.962 39.1725V39.7151C141.962 39.768 141.944 39.8125 141.908 39.8481C141.871 39.8843 141.827 39.9025 141.775 39.9025H137.829C137.776 39.9025 137.732 39.8843 137.696 39.8481C137.66 39.811 137.642 39.7672 137.642 39.7143Z" fill="#F0871F"></path><path id="Vector_21" d="M143.066 39.2208C142.961 39.1286 142.941 39.0236 143.007 38.9049C143.034 38.8656 143.074 38.7984 143.13 38.7024C143.186 38.6072 143.231 38.5399 143.263 38.4999C143.368 38.3487 143.48 38.3223 143.599 38.4213C144.144 38.8747 144.67 39.1022 145.177 39.1022C145.512 39.1022 145.781 39.0138 145.985 38.8362C146.189 38.6586 146.291 38.4417 146.291 38.1855C146.291 37.9029 146.171 37.6565 145.932 37.4457C145.691 37.2356 145.315 37.0247 144.803 36.8146C144.224 36.5713 143.78 36.2939 143.471 35.9811C143.162 35.669 143.008 35.2495 143.008 34.7236C143.008 34.5195 143.049 34.3162 143.131 34.1122C143.213 33.9082 143.335 33.7124 143.496 33.525C143.657 33.3376 143.882 33.1864 144.172 33.0716C144.461 32.9567 144.793 32.8993 145.168 32.8993C145.832 32.8993 146.44 33.0935 146.993 33.4812C147.124 33.5666 147.144 33.6784 147.052 33.8167C147.025 33.856 146.984 33.9187 146.928 34.0041C146.873 34.0895 146.832 34.1523 146.805 34.1915C146.713 34.3427 146.598 34.3759 146.46 34.2898C145.881 33.9611 145.437 33.7963 145.128 33.7963C144.754 33.7963 144.474 33.8885 144.29 34.0721C144.106 34.2565 144.014 34.4606 144.014 34.6835C144.014 34.9533 144.116 35.183 144.321 35.3742C144.525 35.5647 144.84 35.7491 145.267 35.9267C145.951 36.2025 146.476 36.504 146.841 36.829C147.206 37.1547 147.388 37.59 147.388 38.1356C147.388 38.6548 147.179 39.0961 146.761 39.4574C146.344 39.8194 145.82 40 145.188 40C144.826 40 144.476 39.941 144.138 39.8224C143.799 39.7037 143.559 39.5957 143.417 39.4967C143.275 39.3984 143.158 39.307 143.066 39.2208Z" fill="#F0871F"></path></g></g></svg>